<svg xmlns="http://www.w3.org/2000/svg" viewBox="0 0 24 24" fill="none" stroke="currentColor" stroke-width="2" stroke-linecap="round" stroke-linejoin="round">
  <!-- Brain/Memory icon -->
  <path d="M12 2a4 4 0 0 1 4 4c0 1.1-.5 2.1-1.2 2.8A6 6 0 0 1 18 14a6 6 0 0 1-3 5.2V22h-6v-2.8A6 6 0 0 1 6 14a6 6 0 0 1 3.2-5.2A4 4 0 0 1 8 6a4 4 0 0 1 4-4z"/>
  <path d="M12 6v4"/>
  <path d="M9 10h6"/>
  <!-- Neural connections -->
  <circle cx="9" cy="14" r="1"/>
  <circle cx="15" cy="14" r="1"/>
  <circle cx="12" cy="17" r="1"/>
  <line x1="9" y1="14" x2="12" y2="17"/>
  <line x1="15" y1="14" x2="12" y2="17"/>
  <line x1="9" y1="14" x2="15" y2="14"/>
</svg>

