<svg xmlns="http://www.w3.org/2000/svg" viewBox="0 0 24 24" width="24" height="24">
  <defs>
    <linearGradient id="grad" x1="0%" y1="0%" x2="100%" y2="100%">
      <stop offset="0%" style="stop-color:#6366f1;stop-opacity:1" />
      <stop offset="100%" style="stop-color:#8b5cf6;stop-opacity:1" />
    </linearGradient>
  </defs>
  <!-- Brain/Mind icon representing knowledge -->
  <circle cx="12" cy="12" r="10" fill="url(#grad)" opacity="0.15"/>
  <path fill="url(#grad)" d="M12 2C6.48 2 2 6.48 2 12s4.48 10 10 10 10-4.48 10-10S17.52 2 12 2zm0 18c-4.41 0-8-3.59-8-8s3.59-8 8-8 8 3.59 8 8-3.59 8-8 8z"/>
  <!-- Target/Crosshair for Intent -->
  <circle cx="12" cy="12" r="3" fill="none" stroke="url(#grad)" stroke-width="1.5"/>
  <circle cx="12" cy="12" r="6" fill="none" stroke="url(#grad)" stroke-width="1" opacity="0.5"/>
  <line x1="12" y1="4" x2="12" y2="8" stroke="url(#grad)" stroke-width="1.5" stroke-linecap="round"/>
  <line x1="12" y1="16" x2="12" y2="20" stroke="url(#grad)" stroke-width="1.5" stroke-linecap="round"/>
  <line x1="4" y1="12" x2="8" y2="12" stroke="url(#grad)" stroke-width="1.5" stroke-linecap="round"/>
  <line x1="16" y1="12" x2="20" y2="12" stroke="url(#grad)" stroke-width="1.5" stroke-linecap="round"/>
  <!-- Center dot -->
  <circle cx="12" cy="12" r="1.5" fill="url(#grad)"/>
</svg>
